# xmcd
#
# Track frame offsets:
#	150
#	12252
#	23715
#	37641
#	50446
#	62551
#	76308
#	91284
#	105572
#	120697
#	137648
#	154285
#	171849
#	186104
#	202316
#	219652
#	238295
#
# Disc length: 3380 seconds
#
# Revision: 1
# Processed by: cddbd v1.5.1PL0 Copyright (c) Steve Scherf et al.
# Submitted via: CDex 1.50Beta5
#
DISCID=e50d3211
DTITLE=山口百恵 - 山口百恵ーベストセレクションーDisk1
DYEAR=1900
DGENRE=Other
TTITLE0=としごろ
TTITLE1=青い果実
TTITLE2=禁じられた遊び
TTITLE3=春風のいたずら
TTITLE4=ひと夏の経験
TTITLE5=冬の色
TTITLE6=湖の決心
TTITLE7=夏ひらく青春
TTITLE8=ささやかな欲望
TTITLE9=白い約束
TTITLE10=愛に走って
TTITLE11=横須賀ストーリー
TTITLE12=パールカラーにゆれて
TTITLE13=赤い衝撃
TTITLE14=初恋草紙
TTITLE15=夢先案内人
TTITLE16=イミテーション・ゴールド
EXTD=
EXTT0=
EXTT1=
EXTT2=
EXTT3=
EXTT4=
EXTT5=
EXTT6=
EXTT7=
EXTT8=
EXTT9=
EXTT10=
EXTT11=
EXTT12=
EXTT13=
EXTT14=
EXTT15=
EXTT16=
PLAYORDER=
